<mxfile host="app.diagrams.net" agent="Mozilla/5.0 (X11; Ubuntu; Linux x86_64; rv:132.0) Gecko/20100101 Firefox/132.0" version="24.8.4">
  <diagram name="Page-1" id="m8-AKDyAZTO_Czc3pS7X">
    <mxGraphModel dx="1450" dy="714" grid="0" gridSize="10" guides="1" tooltips="1" connect="1" arrows="1" fold="1" page="1" pageScale="1" pageWidth="3300" pageHeight="4681" background="none" math="0" shadow="0">
      <root>
        <mxCell id="0" />
        <mxCell id="1" parent="0" />
        <mxCell id="IhfRJVc3wCJX7Gg2RBDw-3" style="edgeStyle=orthogonalEdgeStyle;rounded=0;orthogonalLoop=1;jettySize=auto;html=1;fillColor=#7EA6E0;" edge="1" parent="1" source="IhfRJVc3wCJX7Gg2RBDw-1" target="IhfRJVc3wCJX7Gg2RBDw-2">
          <mxGeometry relative="1" as="geometry" />
        </mxCell>
        <mxCell id="IhfRJVc3wCJX7Gg2RBDw-1" value="Début" style="ellipse;whiteSpace=wrap;html=1;aspect=fixed;fillColor=#7EA6E0;" vertex="1" parent="1">
          <mxGeometry x="251" y="254" width="80" height="80" as="geometry" />
        </mxCell>
        <mxCell id="IhfRJVc3wCJX7Gg2RBDw-5" style="edgeStyle=orthogonalEdgeStyle;rounded=0;orthogonalLoop=1;jettySize=auto;html=1;exitX=0.5;exitY=1;exitDx=0;exitDy=0;entryX=0.5;entryY=0;entryDx=0;entryDy=0;fillColor=#7EA6E0;" edge="1" parent="1" source="IhfRJVc3wCJX7Gg2RBDw-2" target="IhfRJVc3wCJX7Gg2RBDw-4">
          <mxGeometry relative="1" as="geometry" />
        </mxCell>
        <mxCell id="IhfRJVc3wCJX7Gg2RBDw-2" value="Vérifier les documents" style="whiteSpace=wrap;html=1;aspect=fixed;fillColor=#7EA6E0;" vertex="1" parent="1">
          <mxGeometry x="251" y="387.75" width="80" height="80" as="geometry" />
        </mxCell>
        <mxCell id="IhfRJVc3wCJX7Gg2RBDw-9" style="edgeStyle=orthogonalEdgeStyle;rounded=0;orthogonalLoop=1;jettySize=auto;html=1;entryX=1.025;entryY=0.425;entryDx=0;entryDy=0;exitX=0;exitY=0.5;exitDx=0;exitDy=0;entryPerimeter=0;fillColor=#7EA6E0;" edge="1" parent="1" source="IhfRJVc3wCJX7Gg2RBDw-4" target="IhfRJVc3wCJX7Gg2RBDw-6">
          <mxGeometry relative="1" as="geometry">
            <mxPoint x="224" y="606" as="sourcePoint" />
          </mxGeometry>
        </mxCell>
        <mxCell id="IhfRJVc3wCJX7Gg2RBDw-12" value="Non" style="edgeLabel;html=1;align=center;verticalAlign=middle;resizable=0;points=[];fillColor=#7EA6E0;" vertex="1" connectable="0" parent="IhfRJVc3wCJX7Gg2RBDw-9">
          <mxGeometry x="-0.2941" y="7" relative="1" as="geometry">
            <mxPoint x="-7" y="5" as="offset" />
          </mxGeometry>
        </mxCell>
        <mxCell id="IhfRJVc3wCJX7Gg2RBDw-10" style="edgeStyle=orthogonalEdgeStyle;rounded=0;orthogonalLoop=1;jettySize=auto;html=1;exitX=0.5;exitY=1;exitDx=0;exitDy=0;fillColor=#7EA6E0;" edge="1" parent="1" source="IhfRJVc3wCJX7Gg2RBDw-4" target="IhfRJVc3wCJX7Gg2RBDw-7">
          <mxGeometry relative="1" as="geometry">
            <mxPoint x="291" y="638" as="sourcePoint" />
          </mxGeometry>
        </mxCell>
        <mxCell id="IhfRJVc3wCJX7Gg2RBDw-11" value="Oui" style="edgeLabel;html=1;align=center;verticalAlign=middle;resizable=0;points=[];fillColor=#7EA6E0;" vertex="1" connectable="0" parent="IhfRJVc3wCJX7Gg2RBDw-10">
          <mxGeometry x="-0.3086" y="2" relative="1" as="geometry">
            <mxPoint x="16" y="-18" as="offset" />
          </mxGeometry>
        </mxCell>
        <mxCell id="IhfRJVc3wCJX7Gg2RBDw-15" style="edgeStyle=orthogonalEdgeStyle;rounded=0;orthogonalLoop=1;jettySize=auto;html=1;exitX=0.5;exitY=1;exitDx=0;exitDy=0;fillColor=#7EA6E0;" edge="1" parent="1" source="IhfRJVc3wCJX7Gg2RBDw-4" target="IhfRJVc3wCJX7Gg2RBDw-13">
          <mxGeometry relative="1" as="geometry" />
        </mxCell>
        <mxCell id="IhfRJVc3wCJX7Gg2RBDw-4" value="&lt;div align=&quot;center&quot;&gt;Documents&amp;nbsp;&lt;/div&gt;&lt;div align=&quot;center&quot;&gt;complets ?&lt;br&gt;&lt;/div&gt;&lt;div&gt;&lt;br&gt;&lt;/div&gt;" style="rhombus;whiteSpace=wrap;html=1;fillColor=#7EA6E0;" vertex="1" parent="1">
          <mxGeometry x="231.5" y="514" width="119" height="110.75" as="geometry" />
        </mxCell>
        <mxCell id="IhfRJVc3wCJX7Gg2RBDw-52" style="edgeStyle=orthogonalEdgeStyle;rounded=0;orthogonalLoop=1;jettySize=auto;html=1;exitX=0.5;exitY=0;exitDx=0;exitDy=0;entryX=0;entryY=0.5;entryDx=0;entryDy=0;" edge="1" parent="1" source="IhfRJVc3wCJX7Gg2RBDw-6" target="IhfRJVc3wCJX7Gg2RBDw-2">
          <mxGeometry relative="1" as="geometry" />
        </mxCell>
        <mxCell id="IhfRJVc3wCJX7Gg2RBDw-6" value="Attendre tous les documents" style="whiteSpace=wrap;html=1;aspect=fixed;fillColor=#7EA6E0;" vertex="1" parent="1">
          <mxGeometry x="94" y="539" width="71" height="71" as="geometry" />
        </mxCell>
        <mxCell id="IhfRJVc3wCJX7Gg2RBDw-17" style="edgeStyle=orthogonalEdgeStyle;rounded=0;orthogonalLoop=1;jettySize=auto;html=1;exitX=0.5;exitY=1;exitDx=0;exitDy=0;fillColor=#7EA6E0;" edge="1" parent="1" source="IhfRJVc3wCJX7Gg2RBDw-7">
          <mxGeometry relative="1" as="geometry">
            <mxPoint x="272" y="857" as="targetPoint" />
          </mxGeometry>
        </mxCell>
        <mxCell id="IhfRJVc3wCJX7Gg2RBDw-7" value="Positionner le navire à un poste de déchargement" style="whiteSpace=wrap;html=1;aspect=fixed;fillColor=#7EA6E0;" vertex="1" parent="1">
          <mxGeometry x="139" y="687" width="80" height="80" as="geometry" />
        </mxCell>
        <mxCell id="IhfRJVc3wCJX7Gg2RBDw-18" style="edgeStyle=orthogonalEdgeStyle;rounded=0;orthogonalLoop=1;jettySize=auto;html=1;exitX=0.5;exitY=1;exitDx=0;exitDy=0;entryX=0.5;entryY=0;entryDx=0;entryDy=0;fillColor=#7EA6E0;" edge="1" parent="1" source="IhfRJVc3wCJX7Gg2RBDw-13" target="IhfRJVc3wCJX7Gg2RBDw-16">
          <mxGeometry relative="1" as="geometry" />
        </mxCell>
        <mxCell id="IhfRJVc3wCJX7Gg2RBDw-13" value="Positionner les grues et les équipement de déchargements" style="whiteSpace=wrap;html=1;aspect=fixed;fillColor=#7EA6E0;" vertex="1" parent="1">
          <mxGeometry x="340" y="687" width="90" height="90" as="geometry" />
        </mxCell>
        <mxCell id="IhfRJVc3wCJX7Gg2RBDw-20" style="edgeStyle=orthogonalEdgeStyle;rounded=0;orthogonalLoop=1;jettySize=auto;html=1;exitX=0.5;exitY=1;exitDx=0;exitDy=0;entryX=0.5;entryY=0;entryDx=0;entryDy=0;fillColor=#7EA6E0;" edge="1" parent="1" source="IhfRJVc3wCJX7Gg2RBDw-16" target="IhfRJVc3wCJX7Gg2RBDw-19">
          <mxGeometry relative="1" as="geometry" />
        </mxCell>
        <mxCell id="IhfRJVc3wCJX7Gg2RBDw-16" value="Effectuer un contrôle de sécurité des équipements" style="whiteSpace=wrap;html=1;aspect=fixed;fillColor=#7EA6E0;" vertex="1" parent="1">
          <mxGeometry x="231.5" y="848" width="80" height="80" as="geometry" />
        </mxCell>
        <mxCell id="IhfRJVc3wCJX7Gg2RBDw-22" style="edgeStyle=orthogonalEdgeStyle;rounded=0;orthogonalLoop=1;jettySize=auto;html=1;exitX=0.5;exitY=1;exitDx=0;exitDy=0;entryX=0.5;entryY=0;entryDx=0;entryDy=0;fillColor=#7EA6E0;" edge="1" parent="1" source="IhfRJVc3wCJX7Gg2RBDw-19" target="IhfRJVc3wCJX7Gg2RBDw-21">
          <mxGeometry relative="1" as="geometry" />
        </mxCell>
        <mxCell id="IhfRJVc3wCJX7Gg2RBDw-19" value="Soulever le premier conteneur" style="whiteSpace=wrap;html=1;aspect=fixed;fillColor=#7EA6E0;" vertex="1" parent="1">
          <mxGeometry x="231.5" y="976" width="80" height="80" as="geometry" />
        </mxCell>
        <mxCell id="IhfRJVc3wCJX7Gg2RBDw-24" style="edgeStyle=orthogonalEdgeStyle;rounded=0;orthogonalLoop=1;jettySize=auto;html=1;exitX=0.5;exitY=1;exitDx=0;exitDy=0;entryX=0.5;entryY=0;entryDx=0;entryDy=0;fillColor=#7EA6E0;" edge="1" parent="1" source="IhfRJVc3wCJX7Gg2RBDw-21" target="IhfRJVc3wCJX7Gg2RBDw-23">
          <mxGeometry relative="1" as="geometry" />
        </mxCell>
        <mxCell id="IhfRJVc3wCJX7Gg2RBDw-21" value="Placer le premier conteneur dans le moins de transport interne" style="whiteSpace=wrap;html=1;aspect=fixed;fillColor=#7EA6E0;" vertex="1" parent="1">
          <mxGeometry x="228" y="1094" width="93" height="93" as="geometry" />
        </mxCell>
        <mxCell id="IhfRJVc3wCJX7Gg2RBDw-23" value="Fin" style="ellipse;whiteSpace=wrap;html=1;aspect=fixed;fillColor=#7EA6E0;" vertex="1" parent="1">
          <mxGeometry x="247" y="1233" width="55" height="55" as="geometry" />
        </mxCell>
        <mxCell id="IhfRJVc3wCJX7Gg2RBDw-54" style="edgeStyle=orthogonalEdgeStyle;rounded=0;orthogonalLoop=1;jettySize=auto;html=1;exitX=0.5;exitY=1;exitDx=0;exitDy=0;fillColor=#7EA6E0;" edge="1" parent="1" source="IhfRJVc3wCJX7Gg2RBDw-27" target="IhfRJVc3wCJX7Gg2RBDw-50">
          <mxGeometry relative="1" as="geometry" />
        </mxCell>
        <mxCell id="IhfRJVc3wCJX7Gg2RBDw-27" value="Envoyer une demande de transport au TOS" style="whiteSpace=wrap;html=1;aspect=fixed;fillColor=#7EA6E0;" vertex="1" parent="1">
          <mxGeometry x="925" y="372.75" width="80" height="80" as="geometry" />
        </mxCell>
        <mxCell id="IhfRJVc3wCJX7Gg2RBDw-28" style="edgeStyle=orthogonalEdgeStyle;rounded=0;orthogonalLoop=1;jettySize=auto;html=1;entryX=1.025;entryY=0.425;entryDx=0;entryDy=0;exitX=0;exitY=0.5;exitDx=0;exitDy=0;entryPerimeter=0;fillColor=#7EA6E0;" edge="1" parent="1" source="IhfRJVc3wCJX7Gg2RBDw-33" target="IhfRJVc3wCJX7Gg2RBDw-34">
          <mxGeometry relative="1" as="geometry">
            <mxPoint x="895" y="716.75" as="sourcePoint" />
          </mxGeometry>
        </mxCell>
        <mxCell id="IhfRJVc3wCJX7Gg2RBDw-29" value="Non" style="edgeLabel;html=1;align=center;verticalAlign=middle;resizable=0;points=[];fillColor=#7EA6E0;" vertex="1" connectable="0" parent="IhfRJVc3wCJX7Gg2RBDw-28">
          <mxGeometry x="-0.2941" y="7" relative="1" as="geometry">
            <mxPoint x="-7" y="5" as="offset" />
          </mxGeometry>
        </mxCell>
        <mxCell id="IhfRJVc3wCJX7Gg2RBDw-56" style="edgeStyle=orthogonalEdgeStyle;rounded=0;orthogonalLoop=1;jettySize=auto;html=1;exitX=0.5;exitY=1;exitDx=0;exitDy=0;entryX=0.5;entryY=0;entryDx=0;entryDy=0;fillColor=#7EA6E0;" edge="1" parent="1" source="IhfRJVc3wCJX7Gg2RBDw-33" target="IhfRJVc3wCJX7Gg2RBDw-38">
          <mxGeometry relative="1" as="geometry" />
        </mxCell>
        <mxCell id="IhfRJVc3wCJX7Gg2RBDw-33" value="Équipement disponible ?" style="rhombus;whiteSpace=wrap;html=1;fillColor=#7EA6E0;" vertex="1" parent="1">
          <mxGeometry x="902.5" y="624.75" width="119" height="110.75" as="geometry" />
        </mxCell>
        <mxCell id="IhfRJVc3wCJX7Gg2RBDw-55" style="edgeStyle=orthogonalEdgeStyle;rounded=0;orthogonalLoop=1;jettySize=auto;html=1;exitX=0.5;exitY=0;exitDx=0;exitDy=0;entryX=0;entryY=0.5;entryDx=0;entryDy=0;" edge="1" parent="1" source="IhfRJVc3wCJX7Gg2RBDw-34" target="IhfRJVc3wCJX7Gg2RBDw-50">
          <mxGeometry relative="1" as="geometry">
            <mxPoint x="902" y="550" as="targetPoint" />
          </mxGeometry>
        </mxCell>
        <mxCell id="IhfRJVc3wCJX7Gg2RBDw-34" value="Attendre l&#39;équipement" style="whiteSpace=wrap;html=1;aspect=fixed;fillColor=#7EA6E0;" vertex="1" parent="1">
          <mxGeometry x="765" y="647" width="77" height="77" as="geometry" />
        </mxCell>
        <mxCell id="IhfRJVc3wCJX7Gg2RBDw-58" style="edgeStyle=orthogonalEdgeStyle;rounded=0;orthogonalLoop=1;jettySize=auto;html=1;exitX=0.5;exitY=1;exitDx=0;exitDy=0;entryX=0.5;entryY=0;entryDx=0;entryDy=0;fillColor=#7EA6E0;" edge="1" parent="1" source="IhfRJVc3wCJX7Gg2RBDw-38" target="IhfRJVc3wCJX7Gg2RBDw-57">
          <mxGeometry relative="1" as="geometry" />
        </mxCell>
        <mxCell id="IhfRJVc3wCJX7Gg2RBDw-38" value="Le conteneur est soulevé par une grue et positionner sur le véhicule" style="whiteSpace=wrap;html=1;aspect=fixed;fillColor=#7EA6E0;" vertex="1" parent="1">
          <mxGeometry x="917" y="773" width="90" height="90" as="geometry" />
        </mxCell>
        <mxCell id="IhfRJVc3wCJX7Gg2RBDw-65" style="edgeStyle=orthogonalEdgeStyle;rounded=0;orthogonalLoop=1;jettySize=auto;html=1;exitX=0.5;exitY=1;exitDx=0;exitDy=0;fillColor=#7EA6E0;" edge="1" parent="1" source="IhfRJVc3wCJX7Gg2RBDw-40" target="IhfRJVc3wCJX7Gg2RBDw-44">
          <mxGeometry relative="1" as="geometry" />
        </mxCell>
        <mxCell id="IhfRJVc3wCJX7Gg2RBDw-40" value="Transporter le conteneur vers le quai" style="whiteSpace=wrap;html=1;aspect=fixed;fillColor=#7EA6E0;" vertex="1" parent="1">
          <mxGeometry x="922" y="1056" width="80" height="80" as="geometry" />
        </mxCell>
        <mxCell id="IhfRJVc3wCJX7Gg2RBDw-63" style="edgeStyle=orthogonalEdgeStyle;rounded=0;orthogonalLoop=1;jettySize=auto;html=1;exitX=0.5;exitY=1;exitDx=0;exitDy=0;entryX=0;entryY=0.5;entryDx=0;entryDy=0;" edge="1" parent="1" source="IhfRJVc3wCJX7Gg2RBDw-42" target="IhfRJVc3wCJX7Gg2RBDw-40">
          <mxGeometry relative="1" as="geometry" />
        </mxCell>
        <mxCell id="IhfRJVc3wCJX7Gg2RBDw-42" value="Ajuster le chargement" style="whiteSpace=wrap;html=1;aspect=fixed;fillColor=#7EA6E0;" vertex="1" parent="1">
          <mxGeometry x="765" y="913" width="80" height="80" as="geometry" />
        </mxCell>
        <mxCell id="IhfRJVc3wCJX7Gg2RBDw-67" style="edgeStyle=orthogonalEdgeStyle;rounded=0;orthogonalLoop=1;jettySize=auto;html=1;exitX=0.5;exitY=1;exitDx=0;exitDy=0;entryX=0.5;entryY=0;entryDx=0;entryDy=0;fillColor=#7EA6E0;" edge="1" parent="1" source="IhfRJVc3wCJX7Gg2RBDw-44" target="IhfRJVc3wCJX7Gg2RBDw-66">
          <mxGeometry relative="1" as="geometry" />
        </mxCell>
        <mxCell id="IhfRJVc3wCJX7Gg2RBDw-44" value="Décharger le conteneur au quai " style="whiteSpace=wrap;html=1;aspect=fixed;fillColor=#7EA6E0;" vertex="1" parent="1">
          <mxGeometry x="921" y="1174" width="82" height="82" as="geometry" />
        </mxCell>
        <mxCell id="IhfRJVc3wCJX7Gg2RBDw-45" value="Fin" style="ellipse;whiteSpace=wrap;html=1;aspect=fixed;fillColor=#7EA6E0;" vertex="1" parent="1">
          <mxGeometry x="934.5" y="1420" width="55" height="55" as="geometry" />
        </mxCell>
        <mxCell id="IhfRJVc3wCJX7Gg2RBDw-47" style="edgeStyle=orthogonalEdgeStyle;rounded=0;orthogonalLoop=1;jettySize=auto;html=1;exitX=0.5;exitY=1;exitDx=0;exitDy=0;entryX=0.5;entryY=0;entryDx=0;entryDy=0;fillColor=#7EA6E0;" edge="1" parent="1" source="IhfRJVc3wCJX7Gg2RBDw-46" target="IhfRJVc3wCJX7Gg2RBDw-27">
          <mxGeometry relative="1" as="geometry" />
        </mxCell>
        <mxCell id="IhfRJVc3wCJX7Gg2RBDw-46" value="Début" style="ellipse;whiteSpace=wrap;html=1;aspect=fixed;fillColor=#7EA6E0;" vertex="1" parent="1">
          <mxGeometry x="925" y="236" width="80" height="80" as="geometry" />
        </mxCell>
        <mxCell id="IhfRJVc3wCJX7Gg2RBDw-48" value="&lt;div&gt;Activation du&lt;/div&gt;&lt;div&gt;&amp;nbsp;processus de&amp;nbsp;&lt;/div&gt;&lt;div&gt;transport&lt;/div&gt;" style="text;html=1;align=center;verticalAlign=middle;resizable=0;points=[];autosize=1;strokeColor=none;fillColor=none;" vertex="1" parent="1">
          <mxGeometry x="1021" y="245" width="96" height="55" as="geometry" />
        </mxCell>
        <mxCell id="IhfRJVc3wCJX7Gg2RBDw-49" value="&lt;div&gt;TOS&amp;nbsp; - Terminal&amp;nbsp;&lt;/div&gt;&lt;div&gt;Operating&amp;nbsp;&lt;/div&gt;&lt;div&gt;System&lt;/div&gt;" style="text;html=1;align=center;verticalAlign=middle;resizable=0;points=[];autosize=1;strokeColor=none;fillColor=none;" vertex="1" parent="1">
          <mxGeometry x="1023.5" y="383" width="105" height="55" as="geometry" />
        </mxCell>
        <mxCell id="IhfRJVc3wCJX7Gg2RBDw-51" style="edgeStyle=orthogonalEdgeStyle;rounded=0;orthogonalLoop=1;jettySize=auto;html=1;exitX=0.5;exitY=1;exitDx=0;exitDy=0;entryX=0.5;entryY=0;entryDx=0;entryDy=0;fillColor=#7EA6E0;" edge="1" parent="1" source="IhfRJVc3wCJX7Gg2RBDw-50" target="IhfRJVc3wCJX7Gg2RBDw-33">
          <mxGeometry relative="1" as="geometry" />
        </mxCell>
        <mxCell id="IhfRJVc3wCJX7Gg2RBDw-50" value="TOS identifie la position du conteneur et attribue un équipement de transport" style="whiteSpace=wrap;html=1;aspect=fixed;fillColor=#7EA6E0;" vertex="1" parent="1">
          <mxGeometry x="914" y="493" width="102" height="102" as="geometry" />
        </mxCell>
        <mxCell id="IhfRJVc3wCJX7Gg2RBDw-59" style="edgeStyle=orthogonalEdgeStyle;rounded=0;orthogonalLoop=1;jettySize=auto;html=1;exitX=0.5;exitY=1;exitDx=0;exitDy=0;fillColor=#7EA6E0;" edge="1" parent="1" source="IhfRJVc3wCJX7Gg2RBDw-57" target="IhfRJVc3wCJX7Gg2RBDw-40">
          <mxGeometry relative="1" as="geometry" />
        </mxCell>
        <mxCell id="IhfRJVc3wCJX7Gg2RBDw-61" value="Oui" style="edgeLabel;html=1;align=center;verticalAlign=middle;resizable=0;points=[];fillColor=#7EA6E0;" vertex="1" connectable="0" parent="IhfRJVc3wCJX7Gg2RBDw-59">
          <mxGeometry x="-0.1481" y="-4" relative="1" as="geometry">
            <mxPoint as="offset" />
          </mxGeometry>
        </mxCell>
        <mxCell id="IhfRJVc3wCJX7Gg2RBDw-60" style="edgeStyle=orthogonalEdgeStyle;rounded=0;orthogonalLoop=1;jettySize=auto;html=1;exitX=0;exitY=0.5;exitDx=0;exitDy=0;entryX=1;entryY=0.5;entryDx=0;entryDy=0;" edge="1" parent="1" source="IhfRJVc3wCJX7Gg2RBDw-57" target="IhfRJVc3wCJX7Gg2RBDw-42">
          <mxGeometry relative="1" as="geometry" />
        </mxCell>
        <mxCell id="IhfRJVc3wCJX7Gg2RBDw-62" value="Non" style="edgeLabel;html=1;align=center;verticalAlign=middle;resizable=0;points=[];" vertex="1" connectable="0" parent="IhfRJVc3wCJX7Gg2RBDw-60">
          <mxGeometry x="-0.0333" y="-2" relative="1" as="geometry">
            <mxPoint as="offset" />
          </mxGeometry>
        </mxCell>
        <mxCell id="IhfRJVc3wCJX7Gg2RBDw-57" value="&lt;div&gt;Conteneneur&lt;/div&gt;&lt;div&gt;bien positionné ? &lt;br&gt;&lt;/div&gt;&lt;div&gt;&lt;br&gt;&lt;/div&gt;" style="rhombus;whiteSpace=wrap;html=1;fillColor=#7EA6E0;" vertex="1" parent="1">
          <mxGeometry x="905" y="904" width="114" height="98" as="geometry" />
        </mxCell>
        <mxCell id="IhfRJVc3wCJX7Gg2RBDw-68" style="edgeStyle=orthogonalEdgeStyle;rounded=0;orthogonalLoop=1;jettySize=auto;html=1;exitX=0.5;exitY=1;exitDx=0;exitDy=0;entryX=0.5;entryY=0;entryDx=0;entryDy=0;fillColor=#7EA6E0;" edge="1" parent="1" source="IhfRJVc3wCJX7Gg2RBDw-66" target="IhfRJVc3wCJX7Gg2RBDw-45">
          <mxGeometry relative="1" as="geometry" />
        </mxCell>
        <mxCell id="IhfRJVc3wCJX7Gg2RBDw-69" value="Oui" style="edgeLabel;html=1;align=center;verticalAlign=middle;resizable=0;points=[];fillColor=#7EA6E0;" vertex="1" connectable="0" parent="IhfRJVc3wCJX7Gg2RBDw-68">
          <mxGeometry x="-0.25" y="-1" relative="1" as="geometry">
            <mxPoint as="offset" />
          </mxGeometry>
        </mxCell>
        <mxCell id="IhfRJVc3wCJX7Gg2RBDw-71" style="edgeStyle=orthogonalEdgeStyle;rounded=0;orthogonalLoop=1;jettySize=auto;html=1;exitX=0;exitY=0.5;exitDx=0;exitDy=0;entryX=0.5;entryY=1;entryDx=0;entryDy=0;" edge="1" parent="1" source="IhfRJVc3wCJX7Gg2RBDw-66" target="IhfRJVc3wCJX7Gg2RBDw-70">
          <mxGeometry relative="1" as="geometry">
            <mxPoint x="785" y="1265" as="targetPoint" />
          </mxGeometry>
        </mxCell>
        <mxCell id="IhfRJVc3wCJX7Gg2RBDw-66" value="&lt;div&gt;Conteneneur&lt;/div&gt;&lt;div&gt;bien dechargé ? &lt;br&gt;&lt;/div&gt;&lt;div&gt;&lt;br&gt;&lt;/div&gt;" style="rhombus;whiteSpace=wrap;html=1;fillColor=#7EA6E0;" vertex="1" parent="1">
          <mxGeometry x="905" y="1283" width="114" height="97" as="geometry" />
        </mxCell>
        <mxCell id="IhfRJVc3wCJX7Gg2RBDw-72" style="edgeStyle=orthogonalEdgeStyle;rounded=0;orthogonalLoop=1;jettySize=auto;html=1;exitX=1;exitY=0.5;exitDx=0;exitDy=0;entryX=0;entryY=0.5;entryDx=0;entryDy=0;" edge="1" parent="1" source="IhfRJVc3wCJX7Gg2RBDw-70" target="IhfRJVc3wCJX7Gg2RBDw-44">
          <mxGeometry relative="1" as="geometry" />
        </mxCell>
        <mxCell id="IhfRJVc3wCJX7Gg2RBDw-70" value="&lt;div&gt;&lt;span style=&quot;white-space: pre;&quot;&gt;Vérifier &lt;/span&gt;&lt;/div&gt;&lt;div&gt;&lt;span style=&quot;white-space: pre;&quot;&gt;pourquoi&lt;/span&gt;&lt;/div&gt;&lt;div&gt;&lt;span style=&quot;white-space: pre;&quot;&gt;&lt;/span&gt;&lt;/div&gt;" style="whiteSpace=wrap;html=1;aspect=fixed;fillColor=#7EA6E0;" vertex="1" parent="1">
          <mxGeometry x="736" y="1174" width="82" height="82" as="geometry" />
        </mxCell>
        <mxCell id="IhfRJVc3wCJX7Gg2RBDw-73" value="&lt;div&gt;Transport&amp;nbsp;&lt;/div&gt;&lt;div&gt;Yard - Quay &lt;/div&gt;" style="text;html=1;align=center;verticalAlign=middle;resizable=0;points=[];autosize=1;strokeColor=none;fillColor=none;" vertex="1" parent="1">
          <mxGeometry x="917" y="179" width="81" height="41" as="geometry" />
        </mxCell>
        <mxCell id="IhfRJVc3wCJX7Gg2RBDw-74" value="&lt;div&gt;Déchargement&amp;nbsp; &lt;/div&gt;" style="text;html=1;align=center;verticalAlign=middle;resizable=0;points=[];autosize=1;strokeColor=none;fillColor=none;" vertex="1" parent="1">
          <mxGeometry x="242" y="184" width="100" height="26" as="geometry" />
        </mxCell>
      </root>
    </mxGraphModel>
  </diagram>
</mxfile>
